<?xml version="1.0" encoding="UTF-8"?>
<svg width="80" height="80" viewBox="0 0 24 24" fill="none" xmlns="http://www.w3.org/2000/svg">
  <!-- Fork -->
  <path d="M6 3V12H7.5V3H10V12H11.5V3H14V12C14 14.21 12.21 16 10 16H7C4.79 16 3 14.21 3 12V3H6Z" fill="currentColor"/>
  <!-- Spoon -->
  <path d="M16.5 3C15.67 3 15 3.67 15 4.5C15 5.33 15.67 6 16.5 6C17.33 6 18 5.33 18 4.5C18 3.67 17.33 3 16.5 3ZM15 7.5V12H18V7.5H15Z" fill="currentColor"/>
  <!-- Gear/Circle -->
  <path d="M12 2C6.48 2 2 6.48 2 12C2 17.52 6.48 22 12 22C17.52 22 22 17.52 22 12C22 6.48 17.52 2 12 2ZM12 20C7.58 20 4 16.42 4 12C4 7.58 7.58 4 12 4C16.42 4 20 7.58 20 12C20 16.42 16.42 20 12 20Z" fill="currentColor"/>
</svg>
